<mxfile host="Electron" agent="Mozilla/5.0 (Windows NT 10.0; Win64; x64) AppleWebKit/537.36 (KHTML, like Gecko) draw.io/24.7.8 Chrome/128.0.6613.36 Electron/32.0.1 Safari/537.36" version="24.7.8">
  <diagram name="Страница — 1" id="W2CDsNiv8xTHvrWlTDOc">
    <mxGraphModel dx="1221" dy="717" grid="1" gridSize="10" guides="1" tooltips="1" connect="1" arrows="1" fold="1" page="1" pageScale="1" pageWidth="827" pageHeight="1169" math="0" shadow="0">
      <root>
        <mxCell id="0" />
        <mxCell id="1" parent="0" />
        <mxCell id="u3-JmiM70SIxHqORr8Zl-1" style="edgeStyle=orthogonalEdgeStyle;rounded=0;orthogonalLoop=1;jettySize=auto;html=1;exitX=0.5;exitY=1;exitDx=0;exitDy=0;entryX=0.5;entryY=0;entryDx=0;entryDy=0;" parent="1" source="u3-JmiM70SIxHqORr8Zl-2" target="u3-JmiM70SIxHqORr8Zl-4" edge="1">
          <mxGeometry relative="1" as="geometry" />
        </mxCell>
        <mxCell id="u3-JmiM70SIxHqORr8Zl-2" value="Начало" style="ellipse;whiteSpace=wrap;html=1;fillColor=#f8cecc;strokeColor=#b85450;" parent="1" vertex="1">
          <mxGeometry x="310" y="40" width="220" height="50" as="geometry" />
        </mxCell>
        <mxCell id="u3-JmiM70SIxHqORr8Zl-3" style="edgeStyle=orthogonalEdgeStyle;rounded=0;orthogonalLoop=1;jettySize=auto;html=1;exitX=0.5;exitY=1;exitDx=0;exitDy=0;entryX=0.5;entryY=0;entryDx=0;entryDy=0;" parent="1" source="u3-JmiM70SIxHqORr8Zl-4" target="u3-JmiM70SIxHqORr8Zl-6" edge="1">
          <mxGeometry relative="1" as="geometry" />
        </mxCell>
        <mxCell id="u3-JmiM70SIxHqORr8Zl-4" value="Присваивание переменной s значения 45" style="rounded=0;whiteSpace=wrap;html=1;fillColor=#dae8fc;strokeColor=#6c8ebf;" parent="1" vertex="1">
          <mxGeometry x="310" y="110" width="220" height="50" as="geometry" />
        </mxCell>
        <mxCell id="u3-JmiM70SIxHqORr8Zl-5" style="edgeStyle=orthogonalEdgeStyle;rounded=0;orthogonalLoop=1;jettySize=auto;html=1;exitX=0.5;exitY=1;exitDx=0;exitDy=0;entryX=0.5;entryY=0;entryDx=0;entryDy=0;" parent="1" source="u3-JmiM70SIxHqORr8Zl-6" target="u3-JmiM70SIxHqORr8Zl-9" edge="1">
          <mxGeometry relative="1" as="geometry" />
        </mxCell>
        <mxCell id="u3-JmiM70SIxHqORr8Zl-6" value="Присваивание переменной s_1 значения 67" style="rounded=0;whiteSpace=wrap;html=1;fillColor=#dae8fc;strokeColor=#6c8ebf;" parent="1" vertex="1">
          <mxGeometry x="310" y="180" width="220" height="50" as="geometry" />
        </mxCell>
        <mxCell id="u3-JmiM70SIxHqORr8Zl-7" style="edgeStyle=orthogonalEdgeStyle;rounded=0;orthogonalLoop=1;jettySize=auto;html=1;exitX=1;exitY=0.5;exitDx=0;exitDy=0;entryX=0.5;entryY=0;entryDx=0;entryDy=0;" parent="1" source="u3-JmiM70SIxHqORr8Zl-9" target="u3-JmiM70SIxHqORr8Zl-13" edge="1">
          <mxGeometry relative="1" as="geometry" />
        </mxCell>
        <mxCell id="u3-JmiM70SIxHqORr8Zl-8" style="edgeStyle=orthogonalEdgeStyle;rounded=0;orthogonalLoop=1;jettySize=auto;html=1;exitX=0;exitY=0.5;exitDx=0;exitDy=0;entryX=0.5;entryY=0;entryDx=0;entryDy=0;" parent="1" source="u3-JmiM70SIxHqORr8Zl-9" target="u3-JmiM70SIxHqORr8Zl-15" edge="1">
          <mxGeometry relative="1" as="geometry" />
        </mxCell>
        <mxCell id="u3-JmiM70SIxHqORr8Zl-9" value="(s - s_1) &amp;gt; 0 ?" style="rhombus;whiteSpace=wrap;html=1;fillColor=#fff2cc;strokeColor=#d6b656;" parent="1" vertex="1">
          <mxGeometry x="355" y="250" width="130" height="80" as="geometry" />
        </mxCell>
        <mxCell id="u3-JmiM70SIxHqORr8Zl-10" value="" style="html=1;verticalLabelPosition=bottom;align=center;labelBackgroundColor=#ffffff;verticalAlign=top;strokeWidth=2;strokeColor=#0080F0;shadow=0;dashed=0;shape=mxgraph.ios7.icons.shopping_cart;" parent="1" vertex="1">
          <mxGeometry x="300" y="64.5" width="30" height="25.5" as="geometry" />
        </mxCell>
        <mxCell id="u3-JmiM70SIxHqORr8Zl-11" value="Нет" style="text;html=1;align=center;verticalAlign=middle;resizable=0;points=[];autosize=1;strokeColor=none;fillColor=none;" parent="1" vertex="1">
          <mxGeometry x="490" y="268" width="40" height="30" as="geometry" />
        </mxCell>
        <mxCell id="u3-JmiM70SIxHqORr8Zl-12" style="edgeStyle=orthogonalEdgeStyle;rounded=0;orthogonalLoop=1;jettySize=auto;html=1;exitX=0.5;exitY=1;exitDx=0;exitDy=0;" parent="1" source="u3-JmiM70SIxHqORr8Zl-13" target="u3-JmiM70SIxHqORr8Zl-17" edge="1">
          <mxGeometry relative="1" as="geometry" />
        </mxCell>
        <mxCell id="u3-JmiM70SIxHqORr8Zl-13" value="Переменная s_1 больше, чем s" style="shape=parallelogram;perimeter=parallelogramPerimeter;whiteSpace=wrap;html=1;fixedSize=1;fillColor=#e1d5e7;strokeColor=#9673a6;" parent="1" vertex="1">
          <mxGeometry x="440" y="330" width="220" height="50" as="geometry" />
        </mxCell>
        <mxCell id="u3-JmiM70SIxHqORr8Zl-14" style="edgeStyle=orthogonalEdgeStyle;rounded=0;orthogonalLoop=1;jettySize=auto;html=1;exitX=0.5;exitY=1;exitDx=0;exitDy=0;entryX=0.5;entryY=0;entryDx=0;entryDy=0;" parent="1" source="u3-JmiM70SIxHqORr8Zl-15" target="u3-JmiM70SIxHqORr8Zl-17" edge="1">
          <mxGeometry relative="1" as="geometry" />
        </mxCell>
        <mxCell id="u3-JmiM70SIxHqORr8Zl-15" value="Переменная s больше или равна&lt;br&gt;&amp;nbsp;s_1" style="shape=parallelogram;perimeter=parallelogramPerimeter;whiteSpace=wrap;html=1;fixedSize=1;fillColor=#e1d5e7;strokeColor=#9673a6;" parent="1" vertex="1">
          <mxGeometry x="160" y="330" width="230" height="50" as="geometry" />
        </mxCell>
        <mxCell id="u3-JmiM70SIxHqORr8Zl-16" value="Да" style="text;html=1;align=center;verticalAlign=middle;resizable=0;points=[];autosize=1;strokeColor=none;fillColor=none;" parent="1" vertex="1">
          <mxGeometry x="300" y="268" width="40" height="30" as="geometry" />
        </mxCell>
        <mxCell id="u3-JmiM70SIxHqORr8Zl-17" value="Конец" style="ellipse;whiteSpace=wrap;html=1;fillColor=#f8cecc;strokeColor=#b85450;" parent="1" vertex="1">
          <mxGeometry x="320" y="420" width="200" height="50" as="geometry" />
        </mxCell>
        <mxCell id="u3-JmiM70SIxHqORr8Zl-18" value="" style="shape=image;html=1;verticalAlign=top;verticalLabelPosition=bottom;labelBackgroundColor=#ffffff;imageAspect=0;aspect=fixed;image=https://cdn0.iconfinder.com/data/icons/business-startup-10/50/29-128.png" parent="1" vertex="1">
          <mxGeometry x="530" y="100" width="40" height="40" as="geometry" />
        </mxCell>
      </root>
    </mxGraphModel>
  </diagram>
</mxfile>
